<svg xmlns="http://www.w3.org/2000/svg" xmlns:xlink="http://www.w3.org/1999/xlink" width="96" zoomAndPan="magnify" viewBox="0 0 72 72" height="96" preserveAspectRatio="xMidYMid meet" version="1.0"><defs><clipPath id="7f51208532"><path d="M 7.199219 7.558594 L 64.949219 7.558594 L 64.949219 64.558594 L 7.199219 64.558594 Z M 7.199219 7.558594 " clip-rule="nonzero"/></clipPath></defs><g clip-path="url(#7f51208532)"><path fill="#ffffff" d="M 50.734375 18.664062 L 51.324219 19.6875 C 51.332031 19.699219 51.34375 19.710938 51.351562 19.726562 C 51.363281 19.746094 51.371094 19.765625 51.382812 19.78125 L 58.890625 32.792969 C 58.902344 32.804688 58.910156 32.820312 58.917969 32.832031 C 58.929688 32.851562 58.9375 32.871094 58.949219 32.890625 L 59.882812 34.507812 L 64.289062 31.964844 L 55.140625 16.117188 Z M 12.332031 34.976562 L 12.921875 33.957031 C 12.925781 33.941406 12.933594 33.929688 12.945312 33.914062 C 12.957031 33.890625 12.96875 33.871094 12.980469 33.851562 L 20.488281 20.851562 C 20.496094 20.835938 20.503906 20.820312 20.511719 20.808594 C 20.523438 20.785156 20.535156 20.765625 20.546875 20.746094 L 21.480469 19.128906 L 17.074219 16.585938 L 7.925781 32.433594 Z M 43.753906 30.382812 L 43.753906 29.722656 C 43.753906 28.375 43.007812 27.507812 42.050781 27.121094 C 41.691406 26.976562 41.304688 26.90625 40.921875 26.90625 C 40.539062 26.90625 40.15625 26.976562 39.792969 27.121094 C 39.757812 27.136719 39.722656 27.152344 39.691406 27.167969 L 39.691406 25.613281 C 39.691406 25.449219 39.679688 25.289062 39.65625 25.136719 C 40.386719 24.765625 41.003906 24.515625 41.554688 24.382812 C 42.183594 24.230469 42.738281 24.230469 43.300781 24.375 C 43.6875 24.476562 44.066406 24.5 44.4375 24.449219 C 44.8125 24.394531 45.171875 24.265625 45.515625 24.066406 C 45.816406 23.886719 46.5625 23.453125 47.441406 22.9375 C 48.433594 22.363281 49.582031 21.691406 50.375 21.226562 L 57.140625 32.945312 C 56.890625 33.089844 56.625 33.242188 56.351562 33.394531 C 54.574219 34.402344 52.402344 35.632812 51.988281 36.25 C 51.855469 36.449219 51.753906 36.65625 51.671875 36.875 C 51.59375 37.097656 51.542969 37.320312 51.519531 37.5625 C 51.34375 39.226562 51.140625 40.292969 50.707031 41.09375 C 50.292969 41.867188 49.617188 42.457031 48.496094 43.183594 L 47.820312 43.570312 L 47.820312 32.9375 C 47.820312 31.589844 47.074219 30.722656 46.117188 30.335938 C 45.757812 30.191406 45.371094 30.121094 44.988281 30.121094 C 44.605469 30.121094 44.21875 30.191406 43.859375 30.335938 C 43.824219 30.351562 43.789062 30.367188 43.753906 30.382812 Z M 24.554688 41.996094 C 23.027344 41.121094 21.417969 40.082031 20.996094 38.558594 C 20.890625 38.175781 20.71875 37.835938 20.488281 37.539062 C 20.273438 37.261719 20.003906 37.027344 19.683594 36.835938 C 19.664062 36.824219 19.640625 36.808594 19.617188 36.796875 C 19.429688 36.691406 18.625 36.226562 17.671875 35.683594 C 16.695312 35.125 15.5625 34.476562 14.734375 34.003906 L 21.5 22.285156 C 21.753906 22.433594 22.015625 22.585938 22.285156 22.746094 C 24.042969 23.78125 26.195312 25.050781 26.9375 25.097656 C 27.175781 25.113281 27.402344 25.097656 27.636719 25.058594 C 27.863281 25.015625 28.085938 24.949219 28.304688 24.847656 C 29.832031 24.167969 30.925781 23.796875 31.90625 23.785156 C 32.652344 23.777344 33.382812 23.976562 34.257812 24.410156 C 34.109375 24.757812 34.023438 25.160156 34.023438 25.613281 L 34.023438 27.167969 C 33.988281 27.152344 33.953125 27.136719 33.917969 27.121094 C 33.558594 26.976562 33.171875 26.90625 32.789062 26.90625 C 32.410156 26.90625 32.023438 26.976562 31.660156 27.121094 C 30.703125 27.507812 29.957031 28.375 29.957031 29.722656 L 29.957031 36.277344 C 29.617188 36.011719 29.242188 35.800781 28.855469 35.640625 C 28.40625 35.453125 27.933594 35.339844 27.484375 35.304688 C 27.007812 35.265625 26.546875 35.316406 26.136719 35.457031 C 25.203125 35.777344 24.554688 36.515625 24.554688 37.710938 Z M 30.691406 57.75 L 44.226562 57.75 C 44.222656 56.816406 44.214844 55.496094 44.210938 54.363281 C 44.207031 53.304688 44.203125 52.40625 44.199219 52.121094 C 44.195312 51.722656 44.265625 51.351562 44.40625 51.003906 C 44.546875 50.65625 44.757812 50.335938 45.035156 50.050781 C 45.515625 49.566406 45.816406 48.984375 45.996094 48.1875 C 46.195312 47.304688 46.25 46.152344 46.222656 44.601562 L 46.222656 32.9375 C 46.222656 32.347656 45.914062 31.976562 45.523438 31.820312 C 45.359375 31.753906 45.175781 31.722656 44.988281 31.722656 C 44.800781 31.722656 44.617188 31.753906 44.453125 31.820312 C 44.0625 31.976562 43.753906 32.347656 43.753906 32.9375 L 43.753906 39.65625 C 43.753906 40.097656 43.398438 40.457031 42.953125 40.457031 C 42.511719 40.457031 42.15625 40.097656 42.15625 39.65625 L 42.15625 29.722656 C 42.15625 29.132812 41.847656 28.761719 41.457031 28.605469 C 41.292969 28.539062 41.109375 28.503906 40.921875 28.503906 C 40.734375 28.503906 40.550781 28.539062 40.386719 28.605469 C 39.996094 28.761719 39.6875 29.132812 39.6875 29.722656 L 39.6875 40.28125 C 39.6875 40.722656 39.332031 41.082031 38.890625 41.082031 C 38.445312 41.082031 38.089844 40.722656 38.089844 40.28125 L 38.089844 25.613281 C 38.089844 25.023438 37.78125 24.652344 37.390625 24.496094 C 37.226562 24.429688 37.042969 24.398438 36.855469 24.398438 C 36.667969 24.398438 36.484375 24.429688 36.320312 24.496094 C 35.929688 24.652344 35.625 25.023438 35.625 25.613281 L 35.625 40.75 C 35.625 41.195312 35.265625 41.550781 34.824219 41.550781 C 34.382812 41.550781 34.023438 41.195312 34.023438 40.75 L 34.023438 29.722656 C 34.023438 29.132812 33.714844 28.761719 33.324219 28.605469 C 33.160156 28.539062 32.976562 28.503906 32.789062 28.503906 C 32.601562 28.503906 32.417969 28.539062 32.253906 28.605469 C 31.863281 28.761719 31.558594 29.132812 31.558594 29.722656 L 31.558594 43.191406 C 31.558594 43.632812 31.199219 43.988281 30.757812 43.988281 C 30.316406 43.988281 29.957031 43.632812 29.957031 43.191406 L 29.957031 39.515625 C 29.957031 38.324219 29.148438 37.492188 28.242188 37.113281 C 27.949219 36.992188 27.648438 36.921875 27.363281 36.898438 C 27.101562 36.878906 26.859375 36.902344 26.65625 36.96875 C 26.359375 37.070312 26.15625 37.3125 26.15625 37.710938 L 26.15625 45.199219 C 26.226562 46.507812 26.398438 47.375 26.851562 48.109375 C 27.328125 48.878906 28.152344 49.589844 29.511719 50.574219 C 29.707031 50.71875 29.875 50.875 30.027344 51.050781 C 30.175781 51.226562 30.300781 51.421875 30.410156 51.640625 C 30.738281 52.304688 30.71875 54.800781 30.699219 56.84375 C 30.695312 57.160156 30.695312 57.464844 30.691406 57.75 Z M 46.261719 59.351562 L 27.972656 59.351562 L 27.972656 64.429688 L 46.261719 64.429688 Z M 36.910156 15.15625 C 36.910156 15.597656 36.550781 15.957031 36.109375 15.957031 C 35.667969 15.957031 35.308594 15.597656 35.308594 15.15625 L 35.308594 8.359375 C 35.308594 7.917969 35.667969 7.558594 36.109375 7.558594 C 36.550781 7.558594 36.910156 7.917969 36.910156 8.359375 Z M 26.042969 10.050781 C 26.050781 10.050781 26.058594 10.050781 26.0625 10.050781 Z M 42.84375 16.515625 C 42.578125 16.867188 42.078125 16.933594 41.726562 16.667969 C 41.375 16.398438 41.308594 15.898438 41.578125 15.546875 L 45.527344 10.363281 C 45.796875 10.015625 46.296875 9.945312 46.648438 10.214844 C 47 10.480469 47.066406 10.984375 46.796875 11.332031 Z M 16.398438 47.640625 C 16.78125 47.421875 17.269531 47.550781 17.492188 47.933594 C 17.710938 48.3125 17.582031 48.800781 17.199219 49.023438 L 11.316406 52.421875 C 10.933594 52.640625 10.445312 52.511719 10.222656 52.128906 C 10.003906 51.746094 10.132812 51.257812 10.515625 51.039062 Z M 19.871094 52.871094 L 17.359375 58.886719 C 17.191406 59.292969 17.386719 59.761719 17.792969 59.929688 C 18.199219 60.101562 18.667969 59.90625 18.835938 59.5 L 21.347656 53.484375 C 21.519531 53.078125 21.324219 52.609375 20.917969 52.441406 C 20.507812 52.273438 20.042969 52.464844 19.871094 52.871094 Z M 14.609375 41.816406 L 8.144531 40.984375 C 7.707031 40.929688 7.308594 41.238281 7.253906 41.675781 C 7.195312 42.113281 7.507812 42.511719 7.941406 42.566406 L 14.40625 43.398438 C 14.84375 43.453125 15.242188 43.144531 15.296875 42.707031 C 15.355469 42.269531 15.042969 41.871094 14.609375 41.816406 Z M 54.789062 49.15625 C 54.40625 48.9375 54.277344 48.449219 54.496094 48.066406 C 54.714844 47.6875 55.203125 47.554688 55.582031 47.773438 L 61.46875 51.171875 C 61.847656 51.390625 61.980469 51.878906 61.761719 52.257812 C 61.542969 52.640625 61.054688 52.773438 60.671875 52.554688 Z M 57.578125 43.53125 L 64.042969 42.699219 C 64.480469 42.644531 64.789062 42.246094 64.734375 41.808594 C 64.679688 41.371094 64.28125 41.0625 63.84375 41.117188 L 57.378906 41.949219 C 56.941406 42.003906 56.632812 42.40625 56.6875 42.839844 C 56.742188 43.277344 57.140625 43.585938 57.578125 43.53125 Z M 50.636719 53.617188 L 53.148438 59.632812 C 53.316406 60.039062 53.785156 60.234375 54.195312 60.0625 C 54.601562 59.894531 54.792969 59.425781 54.625 59.019531 L 52.113281 53.003906 C 51.945312 52.597656 51.476562 52.40625 51.070312 52.574219 C 50.660156 52.742188 50.46875 53.210938 50.636719 53.617188 Z M 26.042969 10.050781 C 26.039062 10.050781 26.03125 10.050781 26.023438 10.050781 C 26.023438 10.050781 26.003906 10.050781 26.003906 10.050781 C 26.003906 10.050781 25.984375 10.054688 25.984375 10.054688 C 25.980469 10.054688 25.972656 10.054688 25.96875 10.054688 C 25.96875 10.054688 25.949219 10.058594 25.949219 10.058594 C 25.941406 10.058594 25.933594 10.058594 25.929688 10.058594 C 25.929688 10.058594 25.910156 10.0625 25.910156 10.0625 C 25.910156 10.0625 25.890625 10.066406 25.890625 10.066406 C 25.890625 10.066406 25.871094 10.070312 25.871094 10.070312 C 25.871094 10.070312 25.851562 10.074219 25.851562 10.074219 C 25.851562 10.074219 25.835938 10.082031 25.835938 10.082031 C 25.835938 10.082031 25.816406 10.085938 25.816406 10.085938 C 25.816406 10.085938 25.796875 10.09375 25.796875 10.09375 C 25.796875 10.09375 25.777344 10.097656 25.777344 10.097656 C 25.777344 10.097656 25.761719 10.105469 25.761719 10.105469 C 25.761719 10.105469 25.742188 10.113281 25.742188 10.113281 C 25.742188 10.113281 25.722656 10.121094 25.722656 10.121094 C 25.722656 10.121094 25.707031 10.128906 25.707031 10.128906 C 25.707031 10.128906 25.6875 10.136719 25.6875 10.136719 C 25.6875 10.136719 25.671875 10.148438 25.671875 10.148438 C 25.664062 10.152344 25.660156 10.15625 25.652344 10.15625 C 25.648438 10.160156 25.640625 10.164062 25.636719 10.167969 C 25.636719 10.167969 25.617188 10.179688 25.617188 10.179688 C 25.613281 10.183594 25.605469 10.1875 25.601562 10.191406 C 25.601562 10.191406 25.585938 10.203125 25.585938 10.203125 C 25.578125 10.207031 25.574219 10.210938 25.566406 10.214844 C 25.566406 10.214844 25.550781 10.226562 25.550781 10.226562 C 25.546875 10.230469 25.539062 10.234375 25.535156 10.242188 C 25.53125 10.246094 25.523438 10.25 25.519531 10.253906 C 25.519531 10.253906 25.503906 10.265625 25.503906 10.265625 C 25.503906 10.265625 25.492188 10.28125 25.492188 10.28125 C 25.492188 10.28125 25.476562 10.296875 25.476562 10.296875 C 25.476562 10.296875 25.460938 10.308594 25.460938 10.308594 C 25.457031 10.316406 25.453125 10.320312 25.449219 10.324219 C 25.449219 10.324219 25.4375 10.339844 25.4375 10.339844 C 25.4375 10.339844 25.425781 10.355469 25.425781 10.355469 C 25.425781 10.355469 25.414062 10.371094 25.414062 10.371094 C 25.414062 10.371094 25.402344 10.386719 25.402344 10.386719 C 25.398438 10.394531 25.394531 10.398438 25.390625 10.402344 C 25.386719 10.410156 25.382812 10.414062 25.378906 10.417969 C 25.378906 10.417969 25.367188 10.4375 25.367188 10.4375 C 25.367188 10.4375 25.359375 10.453125 25.359375 10.453125 C 25.359375 10.453125 25.347656 10.46875 25.347656 10.46875 C 25.347656 10.46875 25.339844 10.488281 25.339844 10.488281 C 25.339844 10.488281 25.332031 10.503906 25.332031 10.503906 C 25.332031 10.503906 25.324219 10.523438 25.324219 10.523438 C 25.324219 10.523438 25.316406 10.539062 25.316406 10.539062 C 25.316406 10.539062 25.308594 10.558594 25.308594 10.558594 C 25.308594 10.558594 25.300781 10.574219 25.300781 10.574219 C 25.300781 10.574219 25.296875 10.59375 25.296875 10.59375 C 25.292969 10.601562 25.292969 10.605469 25.289062 10.613281 C 25.289062 10.613281 25.285156 10.628906 25.285156 10.628906 C 25.285156 10.628906 25.277344 10.648438 25.277344 10.648438 C 25.277344 10.648438 25.273438 10.667969 25.273438 10.667969 C 25.273438 10.667969 25.269531 10.6875 25.269531 10.6875 C 25.269531 10.691406 25.269531 10.699219 25.265625 10.707031 C 25.265625 10.707031 25.261719 10.722656 25.261719 10.722656 C 25.261719 10.722656 25.261719 10.742188 25.261719 10.742188 C 25.261719 10.742188 25.257812 10.761719 25.257812 10.761719 C 25.257812 10.761719 25.257812 10.78125 25.257812 10.78125 C 25.257812 10.78125 25.253906 10.800781 25.253906 10.800781 C 25.253906 10.808594 25.253906 10.8125 25.253906 10.820312 C 25.253906 10.820312 25.253906 10.839844 25.253906 10.839844 C 25.253906 10.839844 25.253906 10.859375 25.253906 10.859375 C 25.253906 10.859375 25.253906 10.878906 25.253906 10.878906 C 25.253906 10.882812 25.253906 10.890625 25.253906 10.894531 C 25.253906 10.894531 25.257812 10.914062 25.257812 10.914062 C 25.257812 10.914062 25.257812 10.933594 25.257812 10.933594 C 25.257812 10.933594 25.261719 10.953125 25.261719 10.953125 C 25.261719 10.953125 25.261719 10.972656 25.261719 10.972656 C 25.261719 10.972656 25.265625 10.992188 25.265625 10.992188 C 25.265625 10.992188 25.269531 11.011719 25.269531 11.011719 C 25.269531 11.011719 25.273438 11.03125 25.273438 11.03125 C 25.273438 11.03125 25.277344 11.050781 25.277344 11.050781 C 25.277344 11.050781 25.285156 11.066406 25.285156 11.066406 C 25.285156 11.074219 25.289062 11.082031 25.289062 11.085938 C 25.289062 11.085938 25.296875 11.105469 25.296875 11.105469 C 25.296875 11.105469 25.300781 11.125 25.300781 11.125 C 25.300781 11.125 25.308594 11.140625 25.308594 11.140625 C 25.308594 11.140625 25.316406 11.160156 25.316406 11.160156 C 25.316406 11.160156 25.324219 11.179688 25.324219 11.179688 C 25.324219 11.179688 25.332031 11.195312 25.332031 11.195312 C 25.332031 11.195312 25.339844 11.214844 25.339844 11.214844 C 25.339844 11.214844 25.351562 11.230469 25.351562 11.230469 C 25.351562 11.230469 25.359375 11.25 25.359375 11.25 C 25.359375 11.25 25.371094 11.265625 25.371094 11.265625 C 25.371094 11.265625 25.382812 11.285156 25.382812 11.285156 C 25.382812 11.285156 25.394531 11.300781 25.394531 11.300781 C 25.394531 11.300781 25.40625 11.316406 25.40625 11.316406 C 25.40625 11.316406 25.417969 11.332031 25.417969 11.332031 C 25.417969 11.332031 29.371094 16.515625 29.371094 16.515625 C 29.636719 16.867188 30.140625 16.933594 30.488281 16.667969 C 30.839844 16.398438 30.90625 15.898438 30.640625 15.546875 L 26.6875 10.363281 C 26.6875 10.363281 26.675781 10.347656 26.675781 10.347656 C 26.667969 10.34375 26.664062 10.335938 26.660156 10.332031 C 26.660156 10.332031 26.648438 10.316406 26.648438 10.316406 C 26.644531 10.3125 26.636719 10.308594 26.632812 10.300781 C 26.632812 10.300781 26.621094 10.289062 26.621094 10.289062 C 26.621094 10.289062 26.605469 10.273438 26.605469 10.273438 C 26.605469 10.273438 26.589844 10.261719 26.589844 10.261719 C 26.585938 10.253906 26.582031 10.25 26.578125 10.246094 C 26.578125 10.246094 26.5625 10.234375 26.5625 10.234375 C 26.5625 10.234375 26.546875 10.222656 26.546875 10.222656 C 26.546875 10.222656 26.53125 10.210938 26.53125 10.210938 C 26.53125 10.210938 26.515625 10.199219 26.515625 10.199219 C 26.507812 10.195312 26.503906 10.191406 26.496094 10.1875 C 26.492188 10.183594 26.488281 10.179688 26.480469 10.175781 C 26.480469 10.175781 26.464844 10.164062 26.464844 10.164062 C 26.464844 10.164062 26.449219 10.15625 26.449219 10.15625 C 26.449219 10.15625 26.429688 10.144531 26.429688 10.144531 C 26.429688 10.144531 26.414062 10.136719 26.414062 10.136719 C 26.410156 10.132812 26.402344 10.132812 26.398438 10.128906 C 26.398438 10.128906 26.378906 10.121094 26.378906 10.121094 C 26.375 10.117188 26.367188 10.113281 26.363281 10.113281 C 26.355469 10.109375 26.347656 10.109375 26.34375 10.105469 C 26.335938 10.101562 26.332031 10.101562 26.324219 10.097656 C 26.320312 10.097656 26.3125 10.09375 26.308594 10.09375 C 26.308594 10.09375 26.289062 10.085938 26.289062 10.085938 C 26.28125 10.085938 26.277344 10.082031 26.269531 10.082031 C 26.269531 10.082031 26.253906 10.074219 26.253906 10.074219 C 26.253906 10.074219 26.234375 10.070312 26.234375 10.070312 C 26.234375 10.070312 26.214844 10.066406 26.214844 10.066406 C 26.214844 10.066406 26.195312 10.0625 26.195312 10.0625 C 26.195312 10.0625 26.175781 10.058594 26.175781 10.058594 C 26.175781 10.058594 26.160156 10.058594 26.160156 10.058594 C 26.152344 10.058594 26.144531 10.054688 26.140625 10.054688 C 26.140625 10.054688 26.121094 10.054688 26.121094 10.054688 C 26.121094 10.054688 26.101562 10.050781 26.101562 10.050781 C 26.101562 10.050781 26.082031 10.050781 26.082031 10.050781 C 26.082031 10.050781 26.0625 10.050781 26.0625 10.050781 C 26.054688 10.050781 26.050781 10.050781 26.042969 10.050781 Z M 26.042969 10.050781 " fill-opacity="1" fill-rule="evenodd"/></g></svg>