<svg xmlns="http://www.w3.org/2000/svg" xmlns:xlink="http://www.w3.org/1999/xlink" width="96" zoomAndPan="magnify" viewBox="0 0 72 72" height="96" preserveAspectRatio="xMidYMid meet" version="1.0"><defs><clipPath id="f41563ceed"><path d="M 9 15.890625 L 63 15.890625 L 63 56.390625 L 9 56.390625 Z M 9 15.890625 " clip-rule="nonzero"/></clipPath></defs><g clip-path="url(#f41563ceed)"><path fill="#ffffff" d="M 58.519531 23.160156 C 57.652344 21.140625 55.671875 19.839844 53.472656 19.839844 L 53.308594 19.839844 C 53.105469 17.632812 51.25 15.898438 48.992188 15.898438 C 46.734375 15.898438 44.878906 17.632812 44.679688 19.839844 L 27.308594 19.839844 C 27.109375 17.632812 25.25 15.898438 22.992188 15.898438 C 20.738281 15.898438 18.878906 17.632812 18.679688 19.839844 L 18.511719 19.839844 C 16.316406 19.839844 14.332031 21.140625 13.464844 23.160156 C 7.195312 37.707031 9.773438 49.222656 9.769531 49.71875 C 10.359375 53.40625 13.5 56.082031 17.238281 56.082031 L 19.753906 56.082031 C 21.800781 56.082031 23.722656 55.285156 25.167969 53.839844 L 29.257812 49.746094 C 29.746094 49.257812 30.394531 48.992188 31.085938 48.992188 L 40.898438 48.992188 C 41.589844 48.992188 42.238281 49.257812 42.726562 49.746094 L 46.84375 53.867188 C 48.273438 55.292969 50.171875 56.082031 52.191406 56.082031 L 54.746094 56.082031 C 58.484375 56.082031 61.625 53.40625 62.214844 49.71875 C 62.210938 49.191406 64.796875 37.71875 58.519531 23.160156 Z M 48.992188 17.476562 C 50.378906 17.476562 51.53125 18.503906 51.722656 19.839844 L 46.261719 19.839844 C 46.453125 18.503906 47.605469 17.476562 48.992188 17.476562 Z M 22.992188 17.476562 C 24.378906 17.476562 25.53125 18.503906 25.722656 19.839844 L 20.261719 19.839844 C 20.457031 18.503906 21.605469 17.476562 22.992188 17.476562 Z M 60.660156 49.472656 C 60.191406 52.386719 57.707031 54.503906 54.746094 54.503906 L 52.191406 54.503906 C 50.59375 54.503906 49.089844 53.882812 47.960938 52.75 L 43.839844 48.632812 C 43.054688 47.847656 42.007812 47.414062 40.898438 47.414062 L 31.085938 47.414062 C 29.976562 47.414062 28.929688 47.847656 28.144531 48.632812 L 24.054688 52.722656 C 22.90625 53.871094 21.378906 54.503906 19.753906 54.503906 L 17.238281 54.503906 C 14.277344 54.503906 11.792969 52.386719 11.328125 49.472656 C 11.316406 47.933594 8.820312 37.921875 14.910156 23.78125 C 15.53125 22.34375 16.945312 21.414062 18.511719 21.414062 L 53.472656 21.414062 C 55.039062 21.414062 56.453125 22.34375 57.074219 23.78125 C 63.214844 38.03125 60.664062 48.394531 60.660156 49.472656 Z M 60.660156 49.472656 " fill-opacity="1" fill-rule="nonzero"/></g><path fill="#ffffff" d="M 26.539062 32.445312 L 24.960938 32.445312 L 24.960938 30.871094 C 24.960938 29.132812 23.550781 27.71875 21.8125 27.71875 C 20.074219 27.71875 18.660156 29.132812 18.660156 30.871094 L 18.660156 32.445312 L 17.085938 32.445312 C 15.347656 32.445312 13.933594 33.859375 13.933594 35.597656 C 13.933594 37.335938 15.347656 38.75 17.085938 38.75 L 18.660156 38.75 L 18.660156 40.324219 C 18.660156 42.0625 20.074219 43.476562 21.8125 43.476562 C 23.550781 43.476562 24.960938 42.0625 24.960938 40.324219 L 24.960938 38.75 L 26.539062 38.75 C 28.277344 38.75 29.691406 37.335938 29.691406 35.597656 C 29.691406 33.859375 28.277344 32.445312 26.539062 32.445312 Z M 26.539062 32.445312 " fill-opacity="1" fill-rule="nonzero"/><path fill="#ffffff" d="M 50.175781 32.445312 C 51.476562 32.445312 52.539062 31.386719 52.539062 30.082031 C 52.539062 28.777344 51.476562 27.71875 50.175781 27.71875 C 48.871094 27.71875 47.808594 28.777344 47.808594 30.082031 C 47.808594 31.386719 48.871094 32.445312 50.175781 32.445312 Z M 50.175781 32.445312 " fill-opacity="1" fill-rule="nonzero"/><path fill="#ffffff" d="M 45.445312 32.445312 C 44.144531 32.445312 43.082031 33.503906 43.082031 34.808594 C 43.082031 36.113281 44.144531 37.171875 45.445312 37.171875 C 46.75 37.171875 47.808594 36.113281 47.808594 34.808594 C 47.808594 33.503906 46.75 32.445312 45.445312 32.445312 Z M 45.445312 32.445312 " fill-opacity="1" fill-rule="nonzero"/><path fill="#ffffff" d="M 50.175781 37.171875 C 48.871094 37.171875 47.808594 38.234375 47.808594 39.535156 C 47.808594 40.839844 48.871094 41.898438 50.175781 41.898438 C 51.476562 41.898438 52.539062 40.839844 52.539062 39.535156 C 52.539062 38.234375 51.476562 37.171875 50.175781 37.171875 Z M 50.175781 37.171875 " fill-opacity="1" fill-rule="nonzero"/><path fill="#ffffff" d="M 54.902344 32.445312 C 53.597656 32.445312 52.539062 33.503906 52.539062 34.808594 C 52.539062 36.113281 53.597656 37.171875 54.902344 37.171875 C 56.203125 37.171875 57.265625 36.113281 57.265625 34.808594 C 57.265625 33.503906 56.203125 32.445312 54.902344 32.445312 Z M 54.902344 32.445312 " fill-opacity="1" fill-rule="nonzero"/><path fill="#ffffff" d="M 32.054688 39.535156 C 30.316406 39.535156 28.902344 40.949219 28.902344 42.6875 C 28.902344 44.425781 30.316406 45.839844 32.054688 45.839844 C 33.792969 45.839844 35.203125 44.425781 35.203125 42.6875 C 35.203125 40.949219 33.792969 39.535156 32.054688 39.535156 Z M 32.054688 44.261719 C 31.183594 44.261719 30.476562 43.554688 30.476562 42.6875 C 30.476562 41.820312 31.183594 41.113281 32.054688 41.113281 C 32.921875 41.113281 33.628906 41.820312 33.628906 42.6875 C 33.628906 43.554688 32.921875 44.261719 32.054688 44.261719 Z M 32.054688 44.261719 " fill-opacity="1" fill-rule="nonzero"/><path fill="#ffffff" d="M 39.933594 39.535156 C 38.195312 39.535156 36.78125 40.949219 36.78125 42.6875 C 36.78125 44.425781 38.195312 45.839844 39.933594 45.839844 C 41.667969 45.839844 43.082031 44.425781 43.082031 42.6875 C 43.082031 40.949219 41.667969 39.535156 39.933594 39.535156 Z M 39.933594 44.261719 C 39.0625 44.261719 38.355469 43.554688 38.355469 42.6875 C 38.355469 41.820312 39.0625 41.113281 39.933594 41.113281 C 40.800781 41.113281 41.507812 41.820312 41.507812 42.6875 C 41.507812 43.554688 40.800781 44.261719 39.933594 44.261719 Z M 39.933594 44.261719 " fill-opacity="1" fill-rule="nonzero"/></svg>